<!-- Generator: Adobe Illustrator 18.0.0, SVG Export Plug-In  -->
<svg version="1.1"
	 xmlns="http://www.w3.org/2000/svg" xmlns:xlink="http://www.w3.org/1999/xlink" xmlns:a="http://ns.adobe.com/AdobeSVGViewerExtensions/3.0/"
	 x="0px" y="0px" width="71.8px" height="72px" viewBox="0 0 71.8 72" enable-background="new 0 0 71.8 72" xml:space="preserve">
<defs>
</defs>
<path fill="#CCCCCC" d="M13.8,61.1c2.1,3.7,4.2,7.3,6.3,10.9c3.1-1.8,4.1-4.3,2.7-7.4c-3-6.6-0.9-10.7,5.1-14.5
	c5.3-3.4,9.6-8.3,14.5-12.6c11.3,8.4,14.4,21.8,20.6,33.3c2.6-1.7,3-3.9,2.2-6.6c-2.4-8.5-4.5-17.1-6.7-25.3
	c2.4-2.1,4.6-4.1,7.2-6.5c-1.7-1.4-3-2.5-4.5-3.8c-1.1,0.9-2.3,2-3.5,3c-2.8-5.7-2.4-7.7,1.6-12.1c3.9-4.3,7.5-8.9,11.2-13.5
	c0.7-0.8,1-2,1.2-3.1c0.4-2.3-0.5-3.7-2.9-2.6C65.4,2.1,62,4,58.9,6.2c-2.4,1.7-4.3,4.2-6.4,6.3c-4.5,4.5-5.8,4.7-12.2,1.9
	c1-1.2,2.1-2.5,3.3-4c-1.3-1.3-2.6-2.5-4.1-4c-1.7,1.7-3.4,3-4.4,4.8c-1.2,2.1-2.4,2.3-4.5,1.7c-7.4-2.1-14.9-4-22.4-6
	c-2.6-0.7-5.1-0.9-7,2.1c11.5,6.3,24.8,9.4,33.3,20.7c-2.6,2.8-5.4,5.7-8,8.7c-3,3.5-5.7,7.2-8.9,10.6c-0.9,1-2.9,1.6-4.3,1.6
	c-2.1-0.1-4.2-0.7-6.2-1.4c-3.3-1.3-5.5-0.1-7.3,2.8c3.6,2,7.1,4.1,10.9,6.2c-1.1,2-2.1,3.7-3.2,5.5c0.1,0.2,0.2,0.4,0.4,0.6
	C10,63.2,11.8,62.2,13.8,61.1z"/>
</svg>