<!-- Generator: Adobe Illustrator 18.0.0, SVG Export Plug-In  -->
<svg version="1.1"
	 xmlns="http://www.w3.org/2000/svg" xmlns:xlink="http://www.w3.org/1999/xlink" xmlns:a="http://ns.adobe.com/AdobeSVGViewerExtensions/3.0/"
	 x="0px" y="0px" width="98px" height="98px" viewBox="0 0 98 98" enable-background="new 0 0 98 98" xml:space="preserve">
<defs>
</defs>
<g>
	<path fill="#FFFFFF" d="M97.1,12.1c1.5-4.5,1.2-7.9-0.8-10.3c-2.4-2.1-5.9-2.3-10.3-0.8c-4.5,1.5-8.5,4-12,7.6L62.7,19.7L16.2,8.6
		c-0.7-0.2-1.4,0-2.1,0.6l-9,9c-0.5,0.5-0.7,1.1-0.6,1.9c0.1,0.7,0.5,1.3,1.2,1.7l35.5,19.5L23.1,59.3L9.5,55.6
		c-0.1,0-0.3-0.1-0.6-0.1c-0.7,0-1.2,0.2-1.6,0.6l-6.7,6.8C0.2,63.5,0,64,0,64.6c0.1,0.7,0.4,1.3,0.9,1.6l17.6,13.2l13.2,17.6
		c0.4,0.5,1,0.8,1.7,0.9h0.1c0.7,0,1.2-0.2,1.6-0.6l6.7-6.7c0.6-0.7,0.8-1.4,0.6-2.2l-3.7-13.6l18.1-18.1l19.5,35.5
		c0.3,0.6,0.8,1,1.5,1.1c0.1,0,0.3,0.1,0.5,0.1c0.6,0,1-0.1,1.3-0.4l9-6.7c0.8-0.7,1.1-1.4,0.8-2.3L78.3,35.4l11.3-11.3
		C93.1,20.6,95.6,16.6,97.1,12.1z"/>
</g>
</svg>