<!-- Generator: Adobe Illustrator 18.0.0, SVG Export Plug-In  -->
<svg version="1.1"
	 xmlns="http://www.w3.org/2000/svg" xmlns:xlink="http://www.w3.org/1999/xlink" xmlns:a="http://ns.adobe.com/AdobeSVGViewerExtensions/3.0/"
	 x="0px" y="0px" width="402.4px" height="322.1px" viewBox="0 0 402.4 322.1" enable-background="new 0 0 402.4 322.1"
	 xml:space="preserve">
<defs>
</defs>
<g>
	<path fill="#2A449E" d="M371.2,137.5v58.2c0,0,30,0.2,31.2-29.1C402.8,155.9,395.2,139.2,371.2,137.5z"/>
	<g>
		<polygon fill="#F15F17" points="34.9,232.6 61.8,232.6 70.2,216.6 97.2,216.6 97.2,232.6 126.3,232.6 116.9,138.6 88.7,138.6 		
			"/>
	</g>
	<polygon fill="#F15F17" points="153.2,138.6 180.1,138.6 158.1,232.6 131.1,232.6 	"/>
	<path fill="#F15F17" d="M195.3,140.6l-21.7,92h25.2l15.1-38.5l12.4,38.5h28.9c0,0-1-34.4-15.5-40.8c0,0,25.2-3.6,25.9-33.5
		c0,0,1.7-17.7-15.8-17.7H195.3z"/>
	<polygon fill="#F15F17" points="283.8,138.6 260.8,232.5 331.5,232.5 335.9,209.9 291.2,209.4 296.3,191.9 335.2,191.9 340.3,172 
		300.5,172.5 304,157.6 346.7,157.6 352,138.6 	"/>
	<path fill="#2A449E" d="M0,216.6h48.4l6.7-16h15.1v16h115.2l9.4-29.2l7.7,29.2h114.5l26.5-113h-88.3l-0.7,15.4
		c0,0-12.7-15.4-18.8-15.5c-21.5-0.2-106.8,0-106.8,0l-16.1,71l-7.4-70.8h-41L0,216.6z"/>
	<g>
		<polygon fill="#FFFFFF" points="16.1,205.6 43,205.6 51.4,189.6 78.2,189.6 78.2,205.6 107.5,205.6 98.1,111.6 69.9,111.6 		"/>
		<polygon fill="#2D3F98" points="75.9,136.7 60.1,167.6 75.2,167.6 		"/>
	</g>
	<polygon fill="#FFFFFF" points="134.4,111.6 161.2,111.6 139.3,205.6 112.3,205.6 	"/>
	<polygon fill="#FFFFFF" points="265,111.6 241.9,205.6 312.7,205.6 317.1,183.1 272.4,182.5 277.5,165 316.4,165.1 321.5,145.1 
		281.7,145.6 285.2,130.6 327.9,130.6 333.2,111.6 	"/>
	<ellipse fill="#F15F17" stroke="#2354B0" stroke-width="0.6" stroke-miterlimit="10" cx="376.7" cy="71" rx="7.2" ry="70.7"/>
	<ellipse fill="#F15F17" stroke="#2354B0" stroke-width="0.6" stroke-miterlimit="10" cx="375.7" cy="251.1" rx="7.2" ry="70.7"/>
	<path fill="#F15F17" d="M371.2,138.4v56.4c0,0,29.1,0.2,30.2-28.2C401.8,156.2,395.2,140,371.2,138.4z"/>
	<ellipse fill="#F15F17" stroke="#2354B0" stroke-width="0.6" stroke-miterlimit="10" cx="375.4" cy="166.9" rx="7.9" ry="33.3"/>
	<path fill="#FFFFFF" d="M175,114.6h59.9c0,0,12.6,5.2,12.3,19.3c-0.5,22.3-26.6,31.3-26.6,31.3s10,2.4,13.4,40.4h-25.4
		c0,0-0.2-29.4-7.6-34.5c-2-1.4-11.3-0.3-11.3-0.3l-9.2,34.8h-29.9L175,114.6z"/>
	<path fill="#2A449E" d="M196.3,132.4l-4.6,17.2h14.9c0,0,6.8-2.3,9.1-9.5c0,0,0.4-7.9-5.4-7.7L196.3,132.4z"/>
	<path fill="#F15F17" stroke="#2354B0" stroke-width="0.6" stroke-miterlimit="10" d="M396.9,151.6c0,0-11.6,11.6,0,29.9"/>
</g>
</svg>