<!-- Generator: Adobe Illustrator 18.0.0, SVG Export Plug-In  -->
<svg version="1.1"
	 xmlns="http://www.w3.org/2000/svg" xmlns:xlink="http://www.w3.org/1999/xlink" xmlns:a="http://ns.adobe.com/AdobeSVGViewerExtensions/3.0/"
	 x="0px" y="0px" width="279px" height="198.7px" viewBox="0 0 279 198.7" enable-background="new 0 0 279 198.7"
	 xml:space="preserve">
<defs>
</defs>
<path fill="#CBD4D8" d="M63.9,80.4c-4.1,0-8.1-0.6-11.8-1.8v53.8h23.7V78.7C72,79.8,68,80.4,63.9,80.4z"/>
<path fill="#DD352E" d="M165.6,132.5h-37.8v-10.3c0-4.8,3.9-8.6,8.6-8.6H157c4.8,0,8.6,3.9,8.6,8.6V132.5z"/>
<path fill="#EBBA16" d="M227.1,132.5h-37.8v-10.3c0-4.8,3.9-8.6,8.6-8.6h20.6c4.8,0,8.6,3.9,8.6,8.6V132.5z"/>
<rect x="0" y="160.9" fill="#283238" width="274.4" height="37.8"/>
<path fill="#38454F" d="M264.9,160.9c-1.2-15.8-14.5-28.4-30.6-28.4H40.1c-16.1,0-29.4,12.6-30.6,28.4H264.9z"/>
<circle fill="#DD352E" cx="63.9" cy="40.2" r="40.2"/>
<path fill="#ED7161" d="M42.6,47.3c-2.6,0-4.7-2.1-4.7-4.7c0-15.7,12.7-28.4,28.4-28.4c2.6,0,4.7,2.1,4.7,4.7c0,2.6-2.1,4.7-4.7,4.7
	c-10.4,0-18.9,8.5-18.9,18.9C47.3,45.2,45.2,47.3,42.6,47.3z"/>
<g>
	<g>
		<path fill="#3598DB" d="M279,18.5c0,27.7-133.3,58.2-143.4,58.2c-5.7,0-12.1-1.3-12.1-6.5c0-1.7,2-4.3,5.5-7.3l0,0l-9.4-16.6
			c-1.3-2.3-0.3-5.1,2.1-6.1l1.6-0.6c2.9-1.2,6.2-1,9,0.5l17,9c6.6-3.9,14.1-8,22-12.1l-33.1-21.5c-2.6-1.7-2.6-5.5,0.1-7.2l2.7-1.7
			c4.5-2.8,10-3.7,15.1-2.3l55.1,14.5c17.2-6.8,32.7-11.5,41.9-11.5c2.5,0,4.9,0.1,7.3,0.2L243.8,15l-0.4,5.6l25.7-11.8
			C275.2,10.3,279,13,279,18.5z M211.9,66.2l20.5,23.3c1.3,1.4,3.3,1.9,5,1.1l2.8-1.3c5-2.3,8-7.6,7.3-13.1l-2.6-22
			c-0.2-1.4-1.5-2.2-2.8-1.8l-29.3,10.3C211.4,63.3,210.9,65.1,211.9,66.2z"/>
	</g>
</g>
</svg>