<!-- Generator: Adobe Illustrator 18.0.0, SVG Export Plug-In  -->
<svg version="1.1"
	 xmlns="http://www.w3.org/2000/svg" xmlns:xlink="http://www.w3.org/1999/xlink" xmlns:a="http://ns.adobe.com/AdobeSVGViewerExtensions/3.0/"
	 x="0px" y="0px" width="78.8px" height="87.7px" viewBox="0 0 78.8 87.7" enable-background="new 0 0 78.8 87.7"
	 xml:space="preserve">
<defs>
</defs>
<g>
	<path fill="#FFFFFF" d="M33.8,46.5c12.8,0,23.3-10.4,23.3-23.3C57.1,10.4,46.7,0,33.8,0C21,0,10.6,10.4,10.6,23.3
		C10.6,36.1,21,46.5,33.8,46.5z"/>
	<path fill="#FFFFFF" d="M63.2,52.9c-1.2-2.6-2.8-5.3-4.8-7.8c-1.1-1.4-3-2.8-4.9-3.9c-4.9,5.4-11.9,8.9-19.8,8.9
		c-7.9,0-14.9-3.5-19.8-8.9c-1.8,1-3.7,2.5-4.8,3.9C6,49.5,0.8,57.9,0,69.3c-0.2,2.4,1,6.1,3,7.5c3.8,2.7,12,6.1,29.1,6.1
		c5.9,0,10.9-0.4,15.1-0.9c-1.7-2.9-2.7-6.2-2.7-9.8C44.5,61.7,52.9,53.2,63.2,52.9z"/>
	<path fill="#FFFFFF" d="M63.2,56.6c-8.6,0-15.6,7-15.6,15.6s7,15.6,15.6,15.6s15.6-7,15.6-15.6C78.8,63.5,71.8,56.6,63.2,56.6z
		 M70.9,75h-6v6c0,1-0.8,1.8-1.8,1.8S61.3,82,61.3,81v-6l-6,0c-1,0-1.8-0.8-1.8-1.8c0-1,0.8-1.8,1.8-1.8h6v-6c0-1,0.8-1.8,1.8-1.8
		c1,0,1.8,0.8,1.8,1.8v6h6c1,0,1.8,0.8,1.8,1.8C72.7,74.2,71.9,75,70.9,75z"/>
</g>
</svg>