<!-- Generator: Adobe Illustrator 18.0.0, SVG Export Plug-In  -->
<svg version="1.1"
	 xmlns="http://www.w3.org/2000/svg" xmlns:xlink="http://www.w3.org/1999/xlink" xmlns:a="http://ns.adobe.com/AdobeSVGViewerExtensions/3.0/"
	 x="0px" y="0px" width="79.1px" height="79.2px" viewBox="0 0 79.1 79.2" enable-background="new 0 0 79.1 79.2"
	 xml:space="preserve">
<defs>
</defs>
<path fill="#CCCCCC" d="M8.2,69.4c-0.4,0.7-1,1.6-1.5,2.6c3.7-2.7,5.6,0.6,8,2.3c3.2,2.4,6.3,5.3,11,4.9c0.8-4.4-1.7-7.1-3.8-10
	c-3.7-5.2-3.8-5.6,1-9.7c3.2-2.8,6.4-5.5,9.7-8.3c3.6-3.1,6.4-2.9,10.4-0.1c7.6,5.4,15.3,10.7,23.2,15.7c2.5,1.6,5.8,2.2,8.9,2.5
	c4.1,0.4,5.3-1.4,3.1-4.9c-2.3-3.7-4.8-7.3-7.7-10.6c-6-7-12.4-13.7-18.5-20.5c1.8-1,3.6-2,5.8-3.2c-1.3-1.8-2.3-3.1-3.3-4.4
	c0.3-0.3,0.6-0.6,0.8-0.9c2.6,2.6,5.2,5.2,7.7,7.7c0.3-0.3,0.6-0.6,0.9-0.8c-5.5-5.7-11-11.3-16.4-17c-0.3,0.3-0.7,0.6-1,0.9
	c2.6,2.5,5.3,5,8,7.6c-2.7,2.8-3-1.8-4.9-1.1c-0.2-0.3-0.4-0.5-0.5-0.8c-1.2,1.8-2.3,3.7-3.5,5.5c-6.3-5.8-12.7-11.8-19.4-17.6
	C22.5,6.4,18.7,3.6,14.7,1c-3.5-2.2-5.6-0.8-5,3.3c0.4,3.1,1.2,6.5,2.9,9.2c4.7,7.5,9.7,14.8,14.9,21.9c3.5,4.8,3.8,7.2-0.2,11.8
	c-3,3.5-6,7-9,10.5c-2.1,2.5-4.2,2.6-6.8,0.7c-2.5-1.9-5.2-3.4-7.9-4.9c-0.8-0.5-2.8-0.5-3-0.1c-0.5,0.9-0.7,2.5-0.2,3.4
	C2.7,61,5.3,64.9,8.2,69.4z M35.4,39.6c-0.5-0.5-1-1-1.5-1.6c2.4-1.9,4.6-4.2,7.3-5.6c1.4-0.7,4-0.5,5.2,0.5
	c0.9,0.7,1.2,3.8,0.4,4.8c-2,2.8-4.7,5-7.1,7.4c-0.3-0.3-0.5-0.5-0.8-0.8c1.7-1.9,3.7-3.6,5.1-5.7c0.8-1.2,0.7-3.1,0.9-4.6
	c-1.5,0.3-3.1,0.3-4.3,1.1C38.7,36.3,37.1,38,35.4,39.6z"/>
</svg>