<!-- Generator: Adobe Illustrator 18.0.0, SVG Export Plug-In  -->
<svg version="1.1"
	 xmlns="http://www.w3.org/2000/svg" xmlns:xlink="http://www.w3.org/1999/xlink" xmlns:a="http://ns.adobe.com/AdobeSVGViewerExtensions/3.0/"
	 x="0px" y="0px" width="128.9px" height="95.5px" viewBox="0 0 128.9 95.5" enable-background="new 0 0 128.9 95.5"
	 xml:space="preserve">
<defs>
</defs>
<g>
	<path fill="#FFFFFF" d="M122.4,8.9H120c0-4.2,0-6.8,0-6.8c0-1.2-0.9-2.1-2.1-2.1C87,0,68.6,7,64.5,8.7C60.3,7,41.9,0,11,0
		C9.8,0,8.9,0.9,8.9,2.1c0,0,0,2.6,0,6.8H6.5C2.9,8.9,0,11.8,0,15.5V89c0,3.6,2.9,6.5,6.5,6.5h115.8c3.6,0,6.5-2.9,6.5-6.5V15.5
		C128.9,11.8,126,8.9,122.4,8.9z M115.8,82.4c-26,0.3-42.8,5.5-49.3,7.9V12.4c4.5-1.8,21.6-7.9,49.2-8.2
		C115.8,29.5,115.9,72.7,115.8,82.4z M62.4,12.4v77.9c-6.5-2.4-23.3-7.6-49.3-7.9c0-8.9,0-45.6,0-71.3c0-0.1,0-0.1,0-0.2
		c0-0.1,0-0.1,0-0.2c0-2.3,0-4.5,0-6.6C40.7,4.5,57.8,10.6,62.4,12.4z M4.2,89V15.5c0-1.3,1.1-2.4,2.4-2.4h2.4c0,7.9,0,19,0,30.2
		c0,10.3,0,20.6,0,28.3c0,3.9,0,7.1,0,9.4c0,1.1,0,2,0,2.6c0,1.3,0,1.8,0.6,2.4c0.4,0.4,0.9,0.6,1.5,0.6c17.8,0,31.5,2.4,40.4,4.7
		H6.5C5.2,91.3,4.2,90.3,4.2,89z M124.7,89c0,1.3-1.1,2.4-2.4,2.4H77.5c8.9-2.3,22.6-4.7,40.4-4.7c0.6,0,1.1-0.2,1.5-0.6
		c0.6-0.6,0.6-1.1,0.6-2.4c0-0.6,0-1.5,0-2.6c0-2.3,0-5.5,0-9.4c0-7.7,0-18,0-28.3c0-11.2,0-22.3,0-30.2h2.4c1.3,0,2.4,1.1,2.4,2.4
		L124.7,89L124.7,89z"/>
	<path fill="#FFFFFF" d="M35.2,18.9c7.1,1,13.7,2.3,19.7,4.1c0.2,0.1,0.4,0.1,0.6,0.1c0.9,0,1.7-0.6,2-1.5c0.3-1.1-0.3-2.3-1.4-2.6
		c-6.2-1.8-13.1-3.2-20.4-4.2c-1.1-0.2-2.2,0.6-2.4,1.8C33.3,17.7,34.1,18.8,35.2,18.9z"/>
	<path fill="#FFFFFF" d="M19.8,17.5c2.2,0.1,4.4,0.2,6.6,0.4c0.1,0,0.1,0,0.2,0c1.1,0,2-0.8,2.1-1.9c0.1-1.1-0.8-2.2-1.9-2.3
		c-2.2-0.2-4.5-0.3-6.8-0.4c-1.1,0-2.1,0.8-2.2,2C17.8,16.5,18.7,17.5,19.8,17.5z"/>
	<path fill="#FFFFFF" d="M56.1,36.8c-4.2-1.2-8.8-2.3-13.6-3.2c-1.1-0.2-2.2,0.5-2.4,1.7c-0.2,1.1,0.5,2.2,1.7,2.4
		c4.7,0.8,9.1,1.9,13.1,3.1c0.2,0.1,0.4,0.1,0.6,0.1c0.9,0,1.7-0.6,2-1.5C57.9,38.3,57.2,37.2,56.1,36.8z"/>
	<path fill="#FFFFFF" d="M19.8,35.4c4.5,0.2,8.9,0.6,13.2,1.1c0.1,0,0.2,0,0.3,0c1,0,1.9-0.8,2.1-1.8c0.1-1.1-0.7-2.2-1.8-2.3
		c-4.4-0.5-8.9-0.9-13.5-1.1c-1.1,0-2.1,0.8-2.2,2C17.8,34.3,18.7,35.3,19.8,35.4z"/>
	<path fill="#FFFFFF" d="M55,31.9c0.2,0.1,0.4,0.1,0.6,0.1c0.9,0,1.7-0.6,2-1.5c0.3-1.1-0.3-2.3-1.4-2.6c-1.5-0.4-3-0.8-4.5-1.2
		c-1.1-0.3-2.3,0.4-2.5,1.5c-0.3,1.1,0.4,2.3,1.5,2.5C52.1,31.1,53.6,31.5,55,31.9z"/>
	<path fill="#FFFFFF" d="M19.8,26.5c7.6,0.4,15,1.2,22,2.4c0.1,0,0.3,0,0.4,0c1,0,1.9-0.7,2.1-1.7c0.2-1.1-0.5-2.2-1.7-2.4
		c-7.1-1.3-14.7-2.1-22.6-2.5c-1.1,0-2.1,0.8-2.2,2C17.8,25.4,18.7,26.4,19.8,26.5z"/>
	<path fill="#FFFFFF" d="M56.1,45.7c-6.9-2-14.5-3.5-22.6-4.5c-1.1-0.1-2.2,0.7-2.3,1.8c-0.1,1.1,0.7,2.2,1.8,2.3
		c7.9,1,15.3,2.4,21.9,4.4c0.2,0.1,0.4,0.1,0.6,0.1c0.9,0,1.7-0.6,2-1.5C57.9,47.2,57.2,46.1,56.1,45.7z"/>
	<path fill="#FFFFFF" d="M19.8,44.3c1.5,0.1,3,0.2,4.4,0.3c0,0,0.1,0,0.1,0c1.1,0,2-0.8,2.1-1.9c0.1-1.2-0.8-2.1-1.9-2.2
		c-1.5-0.1-3-0.2-4.5-0.3c-1.2,0-2.1,0.8-2.2,2C17.8,43.2,18.7,44.2,19.8,44.3z"/>
	<path fill="#FFFFFF" d="M56.1,63.6c-4.2-1.2-8.8-2.3-13.6-3.2c-1.1-0.2-2.2,0.5-2.4,1.7c-0.2,1.1,0.5,2.2,1.7,2.4
		c4.7,0.8,9.1,1.9,13.1,3.1c0.2,0.1,0.4,0.1,0.6,0.1c0.9,0,1.7-0.6,2-1.5C57.9,65,57.2,63.9,56.1,63.6z"/>
	<path fill="#FFFFFF" d="M19.8,62.1c4.5,0.2,8.9,0.6,13.2,1.1c0.1,0,0.2,0,0.3,0c1,0,1.9-0.8,2.1-1.8c0.1-1.1-0.7-2.2-1.8-2.3
		c-4.4-0.5-8.9-0.9-13.5-1.1c-1.1,0-2.1,0.8-2.2,2C17.8,61.1,18.7,62,19.8,62.1z"/>
	<path fill="#FFFFFF" d="M56.1,72.5c-6.9-2-14.5-3.5-22.6-4.5c-1.1-0.1-2.2,0.7-2.3,1.8c-0.1,1.1,0.7,2.2,1.8,2.3
		c7.9,1,15.3,2.4,21.9,4.4c0.2,0.1,0.4,0.1,0.6,0.1c0.9,0,1.7-0.6,2-1.5C57.9,74,57.2,72.8,56.1,72.5z"/>
	<path fill="#FFFFFF" d="M19.8,71c1.5,0.1,3,0.2,4.4,0.3c0,0,0.1,0,0.1,0c1.1,0,2-0.8,2.1-1.9c0.1-1.2-0.8-2.1-1.9-2.2
		c-1.5-0.1-3-0.2-4.5-0.3c-1.1,0-2.1,0.8-2.2,2C17.8,70,18.7,70.9,19.8,71z"/>
	<path fill="#FFFFFF" d="M55,58.7c0.2,0.1,0.4,0.1,0.6,0.1c0.9,0,1.7-0.6,2-1.5c0.3-1.1-0.3-2.3-1.4-2.6c-1.5-0.4-3-0.8-4.5-1.2
		c-1.1-0.3-2.3,0.4-2.5,1.5c-0.3,1.1,0.4,2.3,1.5,2.5C52.1,57.9,53.6,58.2,55,58.7z"/>
	<path fill="#FFFFFF" d="M19.8,53.2c7.6,0.4,15,1.2,22,2.4c0.1,0,0.3,0,0.4,0c1,0,1.9-0.7,2.1-1.7c0.2-1.1-0.5-2.2-1.7-2.4
		C35.4,50.2,27.8,49.4,20,49c-1.1,0-2.1,0.8-2.2,2C17.8,52.2,18.7,53.1,19.8,53.2z"/>
	<path fill="#FFFFFF" d="M73.4,23.1c0.2,0,0.4,0,0.6-0.1c6-1.8,12.6-3.1,19.7-4.1c1.1-0.2,1.9-1.2,1.8-2.4c-0.2-1.1-1.2-1.9-2.4-1.8
		c-7.3,1-14.1,2.4-20.4,4.2c-1.1,0.3-1.7,1.5-1.4,2.6C71.6,22.5,72.5,23.1,73.4,23.1z"/>
	<path fill="#FFFFFF" d="M102.3,18c0.1,0,0.1,0,0.2,0c2.2-0.2,4.4-0.3,6.6-0.4c1.2-0.1,2-1,2-2.2c-0.1-1.2-1-2-2.2-2
		c-2.3,0.1-4.5,0.2-6.8,0.4c-1.1,0.1-2,1.1-1.9,2.3C100.3,17.1,101.2,18,102.3,18z"/>
	<path fill="#FFFFFF" d="M73.4,40.9c0.2,0,0.4,0,0.6-0.1c4.1-1.2,8.5-2.2,13.1-3.1c1.1-0.2,1.9-1.3,1.7-2.4
		c-0.2-1.1-1.3-1.9-2.4-1.7c-4.8,0.9-9.4,1.9-13.6,3.2c-1.1,0.3-1.7,1.5-1.4,2.6C71.6,40.3,72.5,40.9,73.4,40.9z"/>
	<path fill="#FFFFFF" d="M108.9,31.2c-4.6,0.2-9.1,0.6-13.5,1.1c-1.1,0.1-2,1.2-1.8,2.3c0.1,1.1,1,1.8,2.1,1.8c0.1,0,0.2,0,0.3,0
		c4.3-0.5,8.7-0.9,13.2-1.1c1.2-0.1,2-1,2-2.2C111,32,110.1,31.1,108.9,31.2z"/>
	<path fill="#FFFFFF" d="M73.4,32c0.2,0,0.4,0,0.6-0.1c1.4-0.4,2.9-0.8,4.4-1.2c1.1-0.3,1.8-1.4,1.5-2.5c-0.3-1.1-1.4-1.8-2.5-1.5
		c-1.5,0.4-3.1,0.8-4.5,1.2c-1.1,0.3-1.7,1.5-1.4,2.6C71.6,31.4,72.5,32,73.4,32z"/>
	<path fill="#FFFFFF" d="M108.9,22.3c-7.8,0.4-15.4,1.2-22.6,2.5c-1.1,0.2-1.9,1.3-1.7,2.4c0.2,1,1.1,1.7,2.1,1.7c0.1,0,0.2,0,0.4,0
		c7-1.3,14.4-2.1,22-2.4c1.2-0.1,2-1,2-2.2C111,23.1,110.1,22.2,108.9,22.3z"/>
	<path fill="#FFFFFF" d="M73.4,49.8c0.2,0,0.4,0,0.6-0.1c6.6-1.9,14-3.4,21.9-4.4c1.1-0.1,2-1.2,1.8-2.3c-0.1-1.1-1.2-2-2.3-1.8
		c-8.1,1-15.7,2.5-22.6,4.5c-1.1,0.3-1.7,1.5-1.4,2.6C71.6,49.2,72.5,49.8,73.4,49.8z"/>
	<path fill="#FFFFFF" d="M108.9,40.1c-1.5,0.1-3,0.2-4.5,0.3c-1.2,0.1-2,1.1-1.9,2.2c0.1,1.1,1,1.9,2.1,1.9c0,0,0.1,0,0.1,0
		c1.4-0.1,2.9-0.2,4.4-0.3c1.2-0.1,2-1,2-2.2C111,40.9,110.1,40,108.9,40.1z"/>
	<path fill="#FFFFFF" d="M71.4,66.2c0.3,0.9,1.1,1.5,2,1.5c0.2,0,0.4,0,0.6-0.1c4.1-1.2,8.5-2.2,13.1-3.1c1.1-0.2,1.9-1.3,1.7-2.4
		c-0.2-1.1-1.3-1.9-2.4-1.7c-4.8,0.9-9.4,1.9-13.6,3.2C71.7,63.9,71,65,71.4,66.2z"/>
	<path fill="#FFFFFF" d="M108.9,57.9c-4.6,0.2-9.1,0.6-13.5,1.1c-1.1,0.1-2,1.2-1.8,2.3c0.1,1.1,1,1.8,2.1,1.8c0.1,0,0.2,0,0.3,0
		c4.3-0.5,8.7-0.9,13.2-1.1c1.2-0.1,2-1,2-2.2C111,58.8,110.1,57.9,108.9,57.9z"/>
	<path fill="#FFFFFF" d="M95.4,68c-8.1,1-15.7,2.5-22.6,4.5c-1.1,0.3-1.7,1.5-1.4,2.6c0.3,0.9,1.1,1.5,2,1.5c0.2,0,0.4,0,0.6-0.1
		c6.6-1.9,14-3.4,21.9-4.4c1.1-0.1,2-1.2,1.8-2.3C97.6,68.6,96.5,67.8,95.4,68z"/>
	<path fill="#FFFFFF" d="M108.9,66.8c-1.5,0.1-3,0.2-4.5,0.3c-1.2,0.1-2,1.1-1.9,2.2c0.1,1.1,1,1.9,2.1,1.9c0,0,0.1,0,0.1,0
		c1.5-0.1,2.9-0.2,4.4-0.3c1.2-0.1,2-1,2-2.2C111,67.7,110.1,66.8,108.9,66.8z"/>
	<path fill="#FFFFFF" d="M73.4,58.7c0.2,0,0.4,0,0.6-0.1c1.4-0.4,2.9-0.8,4.4-1.2c1.1-0.3,1.8-1.4,1.5-2.5c-0.3-1.1-1.4-1.8-2.5-1.5
		c-1.5,0.4-3.1,0.8-4.5,1.2c-1.1,0.3-1.7,1.5-1.4,2.6C71.6,58.2,72.5,58.7,73.4,58.7z"/>
	<path fill="#FFFFFF" d="M108.9,49c-7.8,0.4-15.4,1.2-22.6,2.5c-1.1,0.2-1.9,1.3-1.7,2.4c0.2,1,1.1,1.7,2.1,1.7c0.1,0,0.2,0,0.4,0
		c7-1.3,14.4-2.1,22-2.4c1.2-0.1,2-1,2-2.2C111,49.8,110.1,49,108.9,49z"/>
</g>
</svg>