<!-- Generator: Adobe Illustrator 18.0.0, SVG Export Plug-In  -->
<svg version="1.1"
	 xmlns="http://www.w3.org/2000/svg" xmlns:xlink="http://www.w3.org/1999/xlink" xmlns:a="http://ns.adobe.com/AdobeSVGViewerExtensions/3.0/"
	 x="0px" y="0px" width="154.5px" height="154.7px" viewBox="0 0 154.5 154.7" enable-background="new 0 0 154.5 154.7"
	 xml:space="preserve">
<defs>
</defs>
<g>
	<g>
		<g>
			<path fill="#FFFFFF" d="M141.1,5.1H66.8c-1.9,0-3.4,1.5-3.4,3.4v26.1l3.7-2.3c0.9-0.6,2-1,3-1.2V11.8h67.6v48.3H70.1v-7.8
				l-6.7,4.2v7c0,1.9,1.5,3.4,3.4,3.4h74.3c1.9,0,3.4-1.5,3.4-3.4v-55C144.4,6.6,142.9,5.1,141.1,5.1z"/>
		</g>
	</g>
	<g>
		<g>
			<path fill="#FFFFFF" d="M92.3,23.7c-0.9-1.1-2.5-1.3-3.6-0.4l-11.5,9.1c1.1,0.7,2.1,1.7,2.8,2.9c0.2,0.3,0.4,0.7,0.6,1l11.4-9
				C93,26.4,93.2,24.8,92.3,23.7z"/>
		</g>
	</g>
	<g>
		<g>
			<circle fill="#FFFFFF" cx="36.6" cy="9.6" r="9.6"/>
		</g>
	</g>
	<g>
		<g>
			<path fill="#FFFFFF" d="M76,37.7c-1.4-2.2-4.2-2.9-6.4-1.5L60.2,42c0-7.8,0-3.7,0-8.7c0-6-5-11-11-11h-4.6
				c-3.9,10.1-2.7,6.4-6,15l1.4-6.1c0.1-0.5,0-0.9-0.2-1.3l-1.9-3.4l1.7-3.1c0.3-0.5-0.1-1-0.6-1h-4.6c-0.5,0-0.9,0.6-0.6,1l1.7,3.1
				L33.5,30c-0.2,0.4-0.3,0.9-0.2,1.3l1.2,6.1c-0.7-1.7-5.2-13.4-5.8-15h-4.7c-6,0-11,4.9-11,11l-0.2,34.2c0,2.6,2.1,4.7,4.6,4.7
				c0,0,0,0,0,0c2.6,0,4.6-2.1,4.7-4.6l0.2-34.2c0,0,0,0,0,0c0-0.5,0.4-0.9,0.9-0.9c0.5,0,0.9,0.4,0.9,0.9l0,48.5
				c4.3-0.2,8.2,1.4,11.2,4.1V67h2.4v21.7c1.7,2.5,2.7,5.5,2.7,8.8c0,3-0.8,5.7-2.3,8.1c1.5,0,2.9,0.2,4.3,0.6
				c1.8-1.6,4-2.8,6.5-3.4c0-84.4-0.1-32.2-0.1-69.3c0-0.5,0.4-1,1-1c0.5,0,1,0.4,1,1c0,3.3,0.1,13.5,0.1,17c0,1.7,0.9,3.2,2.4,4.1
				c1.5,0.8,3.3,0.8,4.7-0.1l16.5-10.2C76.7,42.7,77.4,39.9,76,37.7z"/>
		</g>
	</g>
	<g>
		<g>
			<circle fill="#FFFFFF" cx="129.6" cy="97.5" r="10.2"/>
		</g>
	</g>
	<g>
		<g>
			<path fill="#FFFFFF" d="M154.4,122.6c0-6.4-5.3-11.6-11.7-11.6c-2.8,0-23.1,0-25.6,0c1.1,2.1,1.7,4.6,1.7,7.1
				c0,2.7-0.7,5.6-2.3,8.1c5.7,0.2,10.7,3.3,13.6,7.8h12.3v-11.3c0-0.6,0.4-1,1-1c0.6,0,1,0.4,1.1,1c0,0,0,0,0,0l0.1,11.4h9.9
				L154.4,122.6z"/>
		</g>
	</g>
	<g>
		<g>
			<path fill="#FFFFFF" d="M87.6,118.1c0-2.6,0.6-5.1,1.8-7.2c-6.6,0-14.5,0-22.7,0c1,2.1,1.6,4.5,1.6,7c0,2.9-0.8,5.7-2.3,8.1
				c4.7,0,9,2,12.2,5.2c3-3,7.2-4.8,11.7-4.8C88.4,123.7,87.6,120.9,87.6,118.1z"/>
		</g>
	</g>
	<g>
		<g>
			<path fill="#FFFFFF" d="M79.9,87.2c-5.6,0-10.2,4.6-10.2,10.2c0,5.6,4.6,10.2,10.2,10.2c5.6,0,10.2-4.5,10.2-10.2
				C90.1,91.8,85.5,87.2,79.9,87.2z"/>
		</g>
	</g>
	<g>
		<g>
			<path fill="#FFFFFF" d="M37.1,117.8c0-2.5,0.6-4.8,1.6-6.9c-0.4,0,1.4,0-27,0c-6.4,0-11.6,5.2-11.7,11.6L0,134c4.5,0,5.4,0,9.9,0
				l0.1-11.5c0-0.6,0.5-1,1-1c0.6,0,1,0.5,1,1V134h13.8c3-4.8,8.1-7.7,13.7-8C37.9,123.6,37.1,120.8,37.1,117.8z"/>
		</g>
	</g>
	<g>
		<g>
			<path fill="#FFFFFF" d="M24.9,87.2c-5.6,0-10.2,4.6-10.2,10.2c0,5.6,4.5,10.2,10.2,10.2c5.6,0,10.2-4.5,10.2-10.2
				C35.1,91.8,30.5,87.2,24.9,87.2z"/>
		</g>
	</g>
	<g>
		<g>
			<path fill="#FFFFFF" d="M127.5,143.1c0-6.4-5.3-11.6-11.7-11.6c-0.7,0-25.1,0-25.8,0c-6.4,0-12,5.2-12,11.6l-0.1-0.3
				c0-6.4-5.2-11.6-11.7-11.6c-7.4,0-18.1,0-25.8,0c-6.4,0-12,5.2-12,11.6l-0.1,11.8h9.9l0.1-11.8c0-0.5,0.4-0.9,0.9-0.9
				c0.5,0,0.9,0.4,0.9,0.9v11.8c5.8,0,20.7,0,26.1,0v-11.8c0-0.5,0.4-0.9,0.9-1c0.5,0,1,0.4,1,0.9l0.1,11.8c2,0,17.6,0,19.7,0
				l0.1-11.5c0,0,0,0,0,0c0-0.5,0.4-0.9,0.9-0.9s0.9,0.4,0.9,0.9v11.5c5.8,0,20.7,0,26.1,0v-11.5c0-0.5,0.4-0.9,0.9-1
				c0.5,0,1,0.4,1,0.9l0.1,11.5h9.9L127.5,143.1z"/>
		</g>
	</g>
	<g>
		<g>
			<circle fill="#FFFFFF" cx="53" cy="117.8" r="10.3"/>
		</g>
	</g>
	<g>
		<g>
			<circle fill="#FFFFFF" cx="103.2" cy="118.1" r="10.3"/>
		</g>
	</g>
</g>
</svg>