<!-- Generator: Adobe Illustrator 18.0.0, SVG Export Plug-In  -->
<svg version="1.1"
	 xmlns="http://www.w3.org/2000/svg" xmlns:xlink="http://www.w3.org/1999/xlink" xmlns:a="http://ns.adobe.com/AdobeSVGViewerExtensions/3.0/"
	 x="0px" y="0px" width="53.1px" height="72.2px" viewBox="0 0 53.1 72.2" enable-background="new 0 0 53.1 72.2"
	 xml:space="preserve">
<defs>
</defs>
<g>
	<path fill="#FFFFFF" d="M49.2,41.7c-2.5-2.9-6-4.8-9.9-5.4L30.6,35V19.7c0-3.6-3-6.6-6.6-6.6h-0.1c-3.6,0-6.6,3-6.6,6.6v24.6
		l-9.1-3.9c-1.8-0.8-3.9-0.6-5.6,0.5C1,42,0,43.8,0,45.8v0.1c0,1.7,0.7,3.3,2,4.4l15.3,13.6v6.6c0,0.9,0.8,1.7,1.7,1.7
		c0.9,0,1.7-0.8,1.7-1.7v-7.4c0-0.5-0.2-1-0.6-1.3L4.2,47.7c-0.5-0.5-0.8-1.1-0.8-1.8v-0.1c0-0.8,0.4-1.6,1.1-2.1
		c0.7-0.5,1.6-0.5,2.3-0.2l11.5,4.9c0.1,0,0.2,0.1,0.3,0.1c0.2,0,0.3,0,0.5,0c0,0,0,0,0.1,0c0,0,0.1,0,0.1,0c0,0,0.1,0,0.1,0
		c0,0,0,0,0.1,0c0,0,0.1,0,0.1,0c0,0,0,0,0.1,0c0,0,0.1,0,0.1,0c0,0,0,0,0.1,0c0,0,0.1,0,0.1,0c0,0,0,0,0.1,0c0,0,0,0,0.1,0
		c0,0,0,0,0.1-0.1c0,0,0,0,0.1,0c0,0,0,0,0.1-0.1c0,0,0,0,0,0c0,0,0,0,0.1-0.1c0,0,0,0,0-0.1c0,0,0,0,0.1-0.1c0,0,0-0.1,0.1-0.1
		c0,0,0,0,0,0c0.1-0.1,0.1-0.3,0.2-0.5c0-0.1,0-0.2,0-0.3V19.7c0-1.8,1.4-3.2,3.2-3.2H24c1.8,0,3.2,1.4,3.2,3.2v16.4
		c0,0.1,0,0.1,0,0.2c-0.1,0.9,0.5,1.7,1.4,1.9l10.2,1.6c0,0,0,0,0,0C45,40.6,49.7,46,49.7,52.3v0.2c0,2.9-0.7,5.8-2,8.3L43,69.7
		c-0.4,0.8-0.1,1.9,0.7,2.3c0.3,0.1,0.5,0.2,0.8,0.2c0.6,0,1.2-0.3,1.5-0.9l4.6-8.9c1.6-3.1,2.4-6.5,2.4-9.9v-0.2
		C53.1,48.4,51.7,44.7,49.2,41.7z"/>
	<path fill="#FFFFFF" d="M23.9,8.6c0.9,0,1.7-0.8,1.7-1.7V1.7c0-0.9-0.8-1.7-1.7-1.7c-0.9,0-1.7,0.8-1.7,1.7v5.2
		C22.2,7.9,23,8.6,23.9,8.6z"/>
	<path fill="#FFFFFF" d="M34.5,22.5c0,0.9,0.8,1.7,1.7,1.7h5.2c0.9,0,1.7-0.8,1.7-1.7c0-0.9-0.8-1.7-1.7-1.7h-5.2
		C35.3,20.8,34.5,21.6,34.5,22.5z"/>
	<path fill="#FFFFFF" d="M34.9,12.9c0.4,0,0.9-0.2,1.2-0.5l3.7-3.7c0.7-0.7,0.7-1.8,0-2.4c-0.7-0.7-1.8-0.7-2.4,0L33.7,10
		c-0.7,0.7-0.7,1.8,0,2.4C34,12.7,34.4,12.9,34.9,12.9z"/>
	<path fill="#FFFFFF" d="M10.4,12.4c0.3,0.3,0.8,0.5,1.2,0.5s0.9-0.2,1.2-0.5c0.7-0.7,0.7-1.8,0-2.4L9.2,6.3c-0.7-0.7-1.8-0.7-2.4,0
		C6.1,6.9,6.1,8,6.7,8.7L10.4,12.4z"/>
	<path fill="#FFFFFF" d="M5.1,24.3h5.2c0.9,0,1.7-0.8,1.7-1.7c0-0.9-0.8-1.7-1.7-1.7H5.1c-0.9,0-1.7,0.8-1.7,1.7
		C3.4,23.5,4.2,24.3,5.1,24.3z"/>
</g>
</svg>