<!-- Generator: Adobe Illustrator 18.0.0, SVG Export Plug-In  -->
<svg version="1.1"
	 xmlns="http://www.w3.org/2000/svg" xmlns:xlink="http://www.w3.org/1999/xlink" xmlns:a="http://ns.adobe.com/AdobeSVGViewerExtensions/3.0/"
	 x="0px" y="0px" width="88px" height="88px" viewBox="0 0 88 88" enable-background="new 0 0 88 88" xml:space="preserve">
<defs>
</defs>
<g>
	<g>
		<path fill="#0071BC" d="M55.7,21c0,0.1,0,0.3,0,0.4c0,2.4,0,4.7,0,7.1c0,0.3-0.1,0.4-0.4,0.4c-1.4,0-2.7,0-4.1,0
			c-0.5,0-0.9,0.1-1.4,0.2c-0.9,0.2-1.5,0.8-1.5,1.7c-0.1,1.7-0.1,3.3-0.1,5c0,0.3,0.2,0.3,0.4,0.3c2.2,0,4.5,0,6.7,0
			c0.2,0,0.3,0,0.5,0c-0.3,2.7-0.6,5.3-0.9,7.9c-2.2,0-4.4,0-6.7,0c0,0.2,0,0.3,0,0.5c0,7.4,0,14.7,0,22.1c0,0.1,0,0.3,0,0.4
			c-3.1,0-6.1,0-9.2,0c0-0.7,0-1.4,0-2.1c0-6.8,0-13.6,0-20.3c0-0.2,0-0.4,0-0.6c-2,0-4.1,0-6.1,0c0-0.2,0-0.3,0-0.4
			c0-2.4,0-4.7,0-7.1c0-0.3,0.1-0.4,0.4-0.4c1.7,0,3.5,0,5.2,0c0.4,0,0.5-0.1,0.5-0.4c0-2.1,0-4.3,0.1-6.4c0.1-1.5,0.4-3.1,1.2-4.5
			c0.8-1.5,2.1-2.6,3.9-3.1c1-0.3,2-0.4,3-0.6c0.1,0,0.3-0.1,0.4-0.1C50.3,21,53,21,55.7,21z"/>
	</g>
	<polygon fill="#29ABE2" points="0,0 44,0 44,7 7,7 7,81 44,81 44,88 0,88 	"/>
	<polygon fill="#1A6FAF" points="44,88 44,81 81,81 81,7 44,7 44,0 88,0 88,88 	"/>
</g>
</svg>