<!-- Generator: Adobe Illustrator 18.0.0, SVG Export Plug-In  -->
<svg version="1.1"
	 xmlns="http://www.w3.org/2000/svg" xmlns:xlink="http://www.w3.org/1999/xlink" xmlns:a="http://ns.adobe.com/AdobeSVGViewerExtensions/3.0/"
	 x="0px" y="0px" width="129.4px" height="136.7px" viewBox="0 0 129.4 136.7" enable-background="new 0 0 129.4 136.7"
	 xml:space="preserve">
<defs>
</defs>
<g>
	<g>
		<g>
			<path fill="#FFFFFF" d="M24.1,60c0,23.9,0,47.8,0,71.7c0,2.7,2.3,5,5,5c24,0,48,0,72,0c2.7,0,5-2.3,5-5c0-23.9,0-47.8,0-71.7
				c0-6.4-10-6.4-10,0c0,23.9,0,47.8,0,71.7c1.7-1.7,3.3-3.3,5-5c-24,0-48,0-72,0c1.7,1.7,3.3,3.3,5,5c0-23.9,0-47.8,0-71.7
				C34.1,53.6,24.1,53.6,24.1,60L24.1,60z"/>
		</g>
	</g>
	<g>
		<g>
			<path fill="#FFFFFF" d="M127.9,60.1C108.4,40.5,88.8,21,69.3,1.4c-1.9-1.9-5.1-1.9-7.1,0C42,21.7,21.7,41.9,1.5,62.2
				c-4.6,4.6,2.5,11.6,7.1,7.1C28.8,49,49,28.8,69.3,8.5c-2.4,0-4.7,0-7.1,0c19.5,19.5,39.1,39.1,58.6,58.6
				C125.4,71.7,132.5,64.7,127.9,60.1L127.9,60.1z"/>
		</g>
	</g>
</g>
</svg>